<svg xmlns="http://www.w3.org/2000/svg" viewBox="0 0 64 64" width="64" height="64">
  <defs>
    <mask id="b">
      <rect width="64" height="64" fill="#fff"/>
      <path d="M29 18 H36 a5 5 0 0 1 0 10 H29 Z" fill="#000"/>
      <path d="M29 37 H38 a5.5 5.5 0 0 1 0 11 H29 Z" fill="#000"/>
    </mask>
  </defs>
  <rect width="64" height="64" rx="14" fill="#101212"/>
  <g fill="#f4f2ec" mask="url(#b)">
    <rect x="14" y="12" width="11" height="40" rx="2.5"/>
    <path d="M22 12 H37 a11 11 0 0 1 0 22 H22 Z"/>
    <path d="M22 31 H40 a11.5 11.5 0 0 1 0 23 H22 Z"/>
  </g>
  <path d="M30 8 L12 36 H22 L17 56 L40 28 H29 L36 8 Z" fill="#c7f000"/>
</svg>
